<?xml version="1.0" encoding="UTF-8" standalone="no"?>
<!-- Created with Inkscape (http://www.inkscape.org/) -->

<svg
   width="79mm"
   height="79mm"
   viewBox="0 0 79 79"
   version="1.1"
   id="svg1"
   xml:space="preserve"
   inkscape:version="1.4.2 (ebf0e94, 2025-05-08)"
   sodipodi:docname="favicon.svg"
   xmlns:inkscape="http://www.inkscape.org/namespaces/inkscape"
   xmlns:sodipodi="http://sodipodi.sourceforge.net/DTD/sodipodi-0.dtd"
   xmlns="http://www.w3.org/2000/svg"
   xmlns:svg="http://www.w3.org/2000/svg"><sodipodi:namedview
     id="namedview1"
     pagecolor="#ffffff"
     bordercolor="#666666"
     borderopacity="1.0"
     inkscape:showpageshadow="2"
     inkscape:pageopacity="0.0"
     inkscape:pagecheckerboard="0"
     inkscape:deskcolor="#d1d1d1"
     inkscape:document-units="mm"
     inkscape:zoom="2.1417558"
     inkscape:cx="228.78425"
     inkscape:cy="129.33314"
     inkscape:window-width="1920"
     inkscape:window-height="1011"
     inkscape:window-x="0"
     inkscape:window-y="0"
     inkscape:window-maximized="1"
     inkscape:current-layer="g1" /><defs
     id="defs1" /><g
     inkscape:label="Layer 1"
     inkscape:groupmode="layer"
     id="layer1"><g
       id="g1"><path
         style="font-variation-settings:normal;fill:#e9e9e9;fill-opacity:1;fill-rule:evenodd;stroke:#000000;stroke-width:0.176389;stroke-linecap:butt;stroke-linejoin:miter;stroke-miterlimit:4;stroke-dasharray:none;stroke-dashoffset:0;stroke-opacity:1;stop-color:#000000"
         d="m 8.357986,38.3566 c 0.909347,8.42934 5.074587,19.88551 12.903417,24.63218 7.82882,4.74669 21.08185,7.88328 30.57061,2.85993 9.48876,-5.02334 16.4083,-19.82141 17.23618,-24.45743 -3.63464,4.03028 -10.32952,12.23686 -20.34388,14.99419 -8.20067,2.25796 -19.57849,-0.0263 -24.50189,-2.80392 C 17.173153,49.60461 11.986083,43.91436 8.357986,38.3566 Z"
         id="path3"
         sodipodi:nodetypes="csscssc" /><path
         id="path4"
         style="font-variation-settings:normal;fill:#fce16b;fill-opacity:1;fill-rule:evenodd;stroke:#000000;stroke-width:0.176;stroke-linecap:butt;stroke-linejoin:miter;stroke-miterlimit:4;stroke-dasharray:none;stroke-dashoffset:0;stroke-opacity:1;stop-color:#000000"
         d="m 2.971243,13.73204 c -0.499015,0.0753 -0.780793,0.26852 -0.795478,0.60723 -0.02611,0.60213 1.57907,2.07731 2.674644,2.54042 1.095573,0.46311 2.973359,0.57043 4.098116,0.7503 1.124756,0.17987 3.340488,0.32065 3.279568,1.02568 -0.0575,0.66555 -4.639905,-0.29183 -5.592367,-0.46069 C 5.683265,18.02614 1.840604,17.603 1.430049,17.68195 c -0.410555,0.079 -0.912141,0.30886 -0.769321,0.86744 0.142818,0.55857 1.846617,1.57257 3.107336,1.98535 1.260719,0.41277 2.29898,0.38468 4.266296,0.59074 1.967314,0.20607 3.890263,0.42996 3.731673,1.0703 -0.15858,0.64034 -4.629974,0.29377 -5.73835,-0.0124 -1.108379,-0.30616 -2.838636,0.0512 -3.012264,0.42902 -0.17363,0.37779 -0.369089,0.57155 1.253797,1.42406 1.622888,0.85251 3.328322,0.5449 4.169095,0.55577 0.84077,0.0109 3.085342,-0.60831 3.264992,0.13253 0.17965,0.74082 -3.255221,1.01642 -3.96718,1.1771 -0.711961,0.16068 -2.473804,0.74782 -2.300436,1.34083 0.239733,0.82001 0.724525,0.73988 1.564058,1.01487 0.861949,0.28231 2.404885,-0.31103 2.922058,-0.54234 0.69051,-0.34475 3.19978,-1.37747 3.4369,-0.96392 0.28124,0.49047 -2.19303,1.76731 -2.841848,1.93614 -0.648819,0.16893 -1.672829,0.98789 -1.442194,1.62946 0.404813,1.12609 3.165332,0.0817 3.762032,-0.26771 0.59669,-0.34937 2.12373,-1.68058 2.55134,-1.18329 0.30736,0.35745 -2.37836,2.26707 -2.6412,2.54644 -0.26283,0.27937 -0.95771,1.24301 0.71278,1.58074 1.21017,0.24466 2.13959,-0.98042 2.62639,-1.47245 0.48679,-0.49202 1.58188,-1.87043 1.97856,-1.5671 0.28951,0.22138 -0.15327,0.95044 -0.45214,1.18737 -0.29886,0.23692 -0.82471,0.79549 -1.08143,1.2607 -0.25672,0.46522 -0.21306,1.90604 0.44411,2.34249 0.42552,0.38383 1.67801,-1.20594 2.06027,-1.7946 0.38226,-0.58867 1.2324,-2.07446 1.70166,-1.6753 0.31649,0.26922 0.25979,1.0269 0.0754,1.31267 -0.18435,0.28577 -0.53143,0.51297 -0.79351,0.93217 -0.26213,0.4192 -0.54703,1.97582 0.29955,2.43684 0.84658,0.46103 1.70843,-0.68103 2.22412,-1.19197 0.51569,-0.51094 1.38131,-2.67961 1.82405,-2.48245 0.44272,0.19716 -0.21657,1.73577 -0.40404,2.39502 -0.18746,0.65925 -0.20822,1.54747 0.26309,1.99004 0.48881,0.33249 1.63233,-0.93632 1.89159,-1.24637 0.25926,-0.31004 0.84679,-1.6688 1.44468,-1.47418 0.5979,0.19462 0.0673,1.37549 -0.10273,1.78397 -0.17002,0.40847 -0.2421,1.00226 0.20603,1.24543 0.36577,0.30772 1.00562,-0.30898 1.12311,-0.77807 0.0307,-0.45898 0.43255,-1.0919 0.84816,-0.86049 0.41563,0.2314 -0.0458,0.67369 0.37801,0.84196 0.42381,0.16826 1.00692,-0.42841 1.32977,-0.32611 0.32285,0.10229 0.25559,0.59236 0.11442,0.98193 -0.14116,0.38956 -1.0463,0.75912 -1.2652,1.2821 -0.21889,0.523 -0.1139,1.02357 0.28281,1.22608 0.39672,0.20253 0.33003,-0.76887 0.54551,-0.65406 0.2155,0.11481 0.0702,0.59815 0.33701,0.75361 0.26686,0.15546 0.15757,-0.11149 0.4953,-0.41514 0.33775,-0.3036 1.00372,0.44587 1.17639,-0.0439 0.0586,-0.16606 -0.79141,-1.05827 -0.75017,-1.63829 0.0412,-0.58002 0.21197,-1.51724 0.78202,-1.4282 0.57003,0.089 0.0335,0.55588 0.58433,0.88035 0.55084,0.32448 1.13582,-0.92543 1.58956,-0.90057 0.45374,0.0248 -0.28944,1.38631 -0.61467,1.79732 -0.32522,0.41101 -1.28238,0.6002 -1.36888,1.32541 -0.0865,0.72522 0.58085,1.78258 0.87943,1.81 0.29858,0.0274 0.0182,-0.37519 0.10871,-0.66558 0.0905,-0.29042 0.47794,-0.30469 0.7448,-0.14921 0.26685,0.15546 0.056,0.61575 0.63908,1.21631 0.58302,0.60056 1.06023,0.56019 1.21748,0.30868 0.15726,-0.25152 -0.30386,-0.3378 -0.38559,-0.63921 -0.0817,-0.30141 -0.20488,-0.69127 0.0612,-0.67567 0.26611,0.0156 0.60144,0.22543 0.80083,0.2022 0.1994,-0.0232 0.97041,0.14038 0.86644,-0.48491 -0.10397,-0.62529 -0.77477,-0.8405 -1.19283,-1.24907 -0.41805,-0.40857 -0.7075,-2.66903 -0.12181,-2.69741 0.4765,-0.0485 0.20668,0.35547 0.47503,0.79059 0.26836,0.43513 0.77138,0.74943 1.20384,1.25871 0.43244,0.50929 0.898,2.10278 0.74195,2.89829 -0.15605,0.79549 -2.08725,1.30059 -2.63228,1.42632 -0.54502,0.12572 -1.80529,-0.81557 -2.24905,-0.88824 -0.44377,-0.0727 -1.15341,0.5241 -1.47447,0.43714 -0.32101,-0.087 -0.48578,-0.63189 -0.5318,-1.00093 -0.10617,-0.85068 -0.26747,-1.46254 -0.57873,-1.39033 -0.32531,0.0329 -0.76713,3.33938 -0.84753,4.25044 -0.0804,0.91106 0.28383,3.15045 1.21811,3.24756 0.75504,0.0785 0.99602,-2.01338 0.93768,-2.56594 -0.0583,-0.55256 0.13038,-2.40933 0.70044,-2.32029 0.57005,0.089 0.1033,3.15992 0.15639,3.7443 0.0778,0.85653 0.72948,3.55991 1.6334,3.57896 0.9039,0.019 1.42982,-1.25011 1.53144,-2.16271 0.0982,-0.88205 -0.98401,-4.4617 -0.29952,-4.57982 0.38968,-0.0673 1.86521,3.90921 2.08455,5.01746 0.51152,2.58507 2.0246,5.03595 2.58985,4.94713 0.71952,-0.11303 0.12403,-2.11508 0.38416,-3.23083 0.0241,-0.59358 -0.34394,-1.82276 -0.78683,-3.15839 -0.44289,-1.33563 -1.72967,-4.64755 -1.25078,-4.8987 0.34947,-0.18327 3.28602,5.65367 4.35576,8.40868 0.2218,0.57125 0.34567,2.14755 0.6639,2.80437 0.2333,0.48153 0.72418,0.86641 1.33487,1.30275 0.61068,0.43634 1.28803,0.7614 1.7346,0.63447 1.41631,-0.40259 0.80078,-1.39952 0.34746,-2.62151 -0.45331,-1.22198 -3.22931,-5.03371 -4.00369,-6.34265 -0.77438,-1.30895 -5.037,-7.50437 -4.02975,-7.93266 0.50363,-0.21414 1.58002,2.25727 3.02009,4.50941 1.44006,2.25214 3.13619,4.32346 3.54304,4.80485 0.66812,0.79055 2.55453,1.83991 3.05163,1.50279 1.20026,-0.81397 -1.92509,-4.02603 -3.05329,-5.16938 -1.11382,-1.10189 -5.25886,-5.8479 -4.61681,-6.26446 0.74238,-0.48165 3.27275,3.00064 4.42954,4.3894 1.15679,1.38877 2.94417,2.07882 3.6137,1.80357 0.81295,-0.33421 -0.85803,-2.43566 -1.58951,-3.3765 -0.73148,-0.94083 -2.93225,-3.19229 -2.56308,-3.58769 0.3382,-0.36224 1.52752,1.06639 1.95198,1.54456 0.669,0.75366 2.31979,1.13282 2.90401,0.90556 0.78637,-0.30589 0.17382,-0.88772 -0.006,-1.14441 -0.31685,-0.45255 -2.59481,-2.24096 -2.01037,-2.81811 0.58603,-0.57871 2.61585,1.81925 3.28448,2.48757 0.66864,0.66831 4.14405,2.09 4.61044,1.28942 0.46639,-0.80057 -1.96236,-2.2297 -2.60955,-2.71396 -0.64719,-0.48426 -3.33512,-2.47164 -3.00782,-3.13164 0.3273,-0.66 4.33579,2.79017 6.19099,4.03537 1.73457,1.0105 4.5128,1.37114 5.4986,0.75879 1.21093,-1.20879 -4.09676,-3.44818 -4.92851,-3.87186 -1.00816,-0.38002 -5.69083,-2.94364 -5.39063,-3.56935 0.23677,-0.36961 7.6494,3.74144 9.82117,4.2346 2.17178,0.49314 6.48522,-0.38279 6.83397,-0.85872 0.34875,-0.47594 -0.55338,-0.74398 -1.67143,-1.26665 -1.11807,-0.52267 -3.61094,-1.10295 -5.06287,-1.55563 -1.45193,-0.45268 -8.2424,-2.42839 -7.92938,-3.21109 0.313,-0.7827 13.681,3.47402 16.12738,3.65536 2.44638,0.18134 4.09099,-2.0676 4.10475,-2.93445 0.009,-0.55278 -0.38644,-0.61216 -1.10215,-0.64936 -0.79296,-0.0412 -4.55844,-0.4323 -6.15153,-0.49543 -1.5931,-0.0631 -8.74335,-0.31838 -8.48455,-1.03258 0.25881,-0.7142 12.80948,0.52821 14.48596,0.23964 3.54001,-0.0394 4.96003,-3.06498 4.77154,-3.88253 -0.18858,-0.81752 -0.2677,-0.96396 -1.52186,-0.78672 -1.25415,0.17725 -10.09231,0.6473 -11.09184,0.6083 -0.99952,-0.039 -9.14595,0.22605 -9.14333,-0.55158 0.003,-0.77764 7.6456,-0.82875 9.11093,-1.06161 0,0 6.6818,-0.56056 8.32403,-0.8763 1.64222,-0.31572 3.54758,-1.84388 3.23335,-3.20645 -0.31423,-1.36256 -7.5213,-0.77173 -9.3598,-0.80625 -1.83849,-0.0345 -8.76572,0.83275 -10.41431,1.01579 -0.17716,-0.3321 0.25646,-0.73145 0.1463,-1.19128 -0.19155,-0.79979 -4.77378,0.52151 -6.77786,0.70187 -1.69874,0.15294 -2.93738,-0.29056 -4.59275,-0.16876 -1.02456,0.0754 -1.93526,1.12714 -2.90041,2.84458 -0.96514,1.71743 -2.13614,2.42554 -3.55366,2.52477 -1.41753,0.0992 -2.48634,-1.15973 -3.13868,-2.03112 -0.65233,-0.87138 -0.60348,-2.34787 -0.40128,-2.87711 0.20216,-0.52923 1.43052,-1.31 1.88646,-1.73688 0.45591,-0.42689 0.93802,-1.41072 0.63983,-1.67956 -0.44628,-0.40235 -1.62118,1.29313 -1.94148,1.07268 -0.28684,-0.19743 0.0324,-1.79572 -0.46862,-2.13309 -0.50102,-0.33737 -0.62365,1.74775 -1.1064,1.4483 -0.44014,-0.27303 1.03368,-2.42603 0.53501,-2.76666 -0.49129,-0.33558 -1.7553,2.20201 -2.19116,1.94825 -0.33471,-0.19487 0.23542,-0.8078 -0.17249,-1.10106 -0.23119,-0.1662 -1.33683,2.11251 -2.06969,2.61563 -0.73288,0.50313 -1.56356,0.35773 -2.50374,0.41764 -0.52612,0.15453 -1.27766,0.24251 -1.75373,0.82658 -0.47607,0.58406 -0.52838,1.33611 -0.8536,1.74713 -0.32522,0.41101 -1.76414,0.56121 -2.07887,1.23749 -0.19817,0.42581 0.11435,1.24576 0.11583,1.52543 0.001,0.27966 0.16711,1.30199 0.64083,1.23119 0.4737,-0.0707 0.19751,-0.97137 0.16991,-1.34126 -0.0275,-0.36991 0.2381,-0.49401 0.664,-0.57474 0.42588,-0.0807 0.38955,-0.36457 0.93076,-0.41958 0.49426,-0.0505 1.28615,0.0988 1.30045,0.2215 0.0143,0.12271 -0.10134,0.19879 -0.2647,0.26444 -0.16336,0.0657 -0.72769,-0.24182 -0.92529,-0.20329 -0.19762,0.0385 -0.0227,0.20471 -0.46213,0.30253 -0.43945,0.0978 -0.93892,0.40385 -0.86425,0.72241 0.0519,0.49712 1.98656,-0.44516 2.86916,0.27178 0.8826,0.71695 1.30061,1.49355 1.43742,2.13363 0.29729,2.01749 -2.59354,2.09575 -3.42767,2.13707 -0.94399,0.0467 -2.34003,-0.67187 -3.48044,-2.18692 -1.14041,-1.51504 -1.17469,-4.7448 -1.29831,-5.5388 -0.12363,-0.79401 -0.82917,-1.6448 -1.64493,-1.44092 -0.81574,0.20388 -1.84959,0.1379 -2.94264,-0.17009 -1.09303,-0.30794 -1.72805,-1.00297 -2.50747,-1.02096 -0.21166,0.61353 -0.33771,0.93656 -0.89618,1.02892 -0.52919,0.15489 -3.730284,-0.79366 -4.84863,-1.05201 C 7.632986,13.94324 5.645423,13.83756 4.093335,13.7184 3.648225,13.6842 3.270581,13.687 2.971168,13.7321 Z m 11.17927,2.07543 5.1e-4,-6e-5 c 0.25108,-0.0292 1.44146,2.04063 2.47085,2.75146 1.02938,0.71084 2.44442,0.56298 3.62335,-0.096 -0.0695,1.73266 0.0153,3.20223 0.8313,4.7322 1.24072,2.32646 5.78095,2.34896 5.41031,4.66687 -1.50025,-0.84047 -4.30073,-1.76223 -5.75726,-2.81334 -1.45653,-1.05111 -1.91107,-3.4474 -1.69467,-5.1274 -1.0064,0.29307 -2.19798,0.29829 -3.26571,-0.46022 -1.06775,-0.75856 -2.29213,-3.57505 -1.61868,-3.65352 z m 15.61589,-0.97103 c 0.62946,0.0194 0.94281,0.17876 1.32179,0.16802 0,0 2.08542,-0.29776 2.1507,-0.0987 0.005,0.1758 -0.78442,0.3723 -1.4824,0.48957 -0.66695,0.0965 -1.10542,-0.0856 -2.3162,0.0758 -0.54225,-0.0706 -1.04276,0.41745 -1.17264,0.30832 -0.15291,-0.20888 0.42939,-0.72039 1.49875,-0.94306 z m -2.00293,1.81342 c 0.4613,-0.0412 1.36839,0.0991 1.73687,0.0109 0.34268,-0.082 1.97609,-0.53923 2.06037,-0.0346 0.0843,0.50467 -1.02582,0.74156 -1.51589,1.0283 -0.61606,-0.59235 -0.90536,-0.72221 -1.50784,-0.58596 0,0 0.59713,0.96823 0.36944,1.1166 -0.19167,0.12489 -0.39319,-0.30672 -0.72548,-0.94402 -0.19648,-0.20541 -0.70367,-0.16304 -0.69362,-0.4743 0.0183,-0.0692 0.12239,-0.10326 0.27616,-0.11694 z m -1.18393,0.66237 a 0.3616958,0.29208639 83.353804 0 1 0.33239,0.32545 0.3616958,0.29208639 83.353804 0 1 -0.24866,0.39316 0.3616958,0.29208639 83.353804 0 1 -0.33187,-0.32552 0.3616958,0.29208639 83.353804 0 1 0.24814,-0.39309 z m 6.79527,-0.39171 c 0.5151,-0.062 2.0132,1.00768 2.13891,1.92547 0.15263,1.11462 -2.24104,2.25391 -2.407,1.82823 -0.24093,-0.48773 1.74654,-0.65541 1.62959,-1.77147 -0.12752,-1.21706 -1.56501,-1.5821 -1.45032,-1.95419 0.0249,-0.0146 0.0545,-0.024 0.0889,-0.0281 z m -18.80751,3.64716 c 0.53494,-0.0563 0.53721,4.01936 1.18087,4.10669 1.55398,-0.49411 1.02058,-0.83993 2.48488,-1.92784 0.57274,1.50338 0.41354,2.72735 0.68327,4.01535 0.74491,-0.33227 0.36256,-0.0718 1.89765,-0.61391 0.28167,0.20082 0.70318,1.72759 0.72845,2.38949 0.67431,-0.35872 1.25648,-0.49553 2.08781,-0.58041 0.24503,0.874 1.3993,1.70049 1.72549,2.17705 1.09995,0.0129 1.24027,-1.63812 1.71683,-0.27706 0.0337,0.59596 -0.81654,1.74273 -2.01589,1.53242 -0.32511,-0.0267 -1.61173,-1.25221 -1.98237,-2.10446 -1.13486,0.0608 -1.95693,0.2542 -2.4518,0.30079 -0.4907,-0.56257 -0.58189,-1.58362 -0.61351,-2.12193 -0.50246,0.29176 0.002,0.3304 -1.43851,0.51359 -0.6324,-0.25692 -0.89383,-1.70448 -0.91725,-3.39812 -0.93062,0.61237 -1.17274,1.17183 -2.31061,1.28478 -0.8119,-0.34748 -1.31025,-5.24014 -0.77531,-5.29643 z m 42.36068,-3.61653 c 0.0148,-0.002 0.0264,-5e-5 0.0345,0.006 0.39121,0.29137 -1.36609,2.30911 -3.21115,2.98171 -1.4436,0.42241 -3.14243,0.45848 -3.94542,0.77448 -1.12498,0.44278 -1.37013,1.69247 -2.59148,2.33462 -1.22137,0.64216 -1.53205,0.54774 -2.95745,0.54231 -0.46261,-0.15291 -1.39221,-0.81515 -1.4306,-1.2224 0.11722,-0.39137 1.4893,-0.40307 2.12493,-0.45831 2.14832,-0.0175 2.84217,-1.37888 3.77853,-3.03273 1.15876,0.0218 3.17651,0.4969 4.70264,0.25897 1.54527,-0.5426 3.19477,-2.14673 3.4955,-2.18451 z m -20.78195,3.83873 c 0.59216,0.0302 0.87224,1.70024 0.69522,2.30074 -0.21425,0.48842 -1.34153,0.16034 -1.58188,0.68065 -0.51041,0.71215 0.41445,0.91959 -0.49849,1.51741 -0.93366,0.36275 -0.88166,-0.6051 -1.39408,-0.53835 -0.47064,0.29607 -1.57291,1.29456 -2.27581,-0.38566 -0.50009,-1.1462 0.8109,-1.10269 1.67542,-0.69051 0.52007,-0.13419 1.66567,-0.29043 1.92108,-1.18529 0.2738,-0.34615 1.04881,-1.61551 1.45854,-1.69899 z m 18.44824,0.27063 c 0.0517,-0.006 0.1031,8.8e-4 0.15473,0.0242 0.55625,0.4107 -0.28375,2.54786 -1.00757,3.49754 -0.76294,0.5136 -1.7401,0.15332 -2.23622,0.39167 0.0192,0.69531 0.58109,3.17224 0.13815,3.52531 -0.53332,0.19423 -1.51853,0.0559 -2.51878,-0.006 0.0684,1.35308 -0.14834,2.04683 -0.656,2.5097 -0.60515,0.53505 -1.77524,0.22548 -2.42906,-0.22734 -0.22336,0.46392 -0.15636,1.33803 -0.82675,1.2586 -0.58011,0.057 -0.53563,-0.73499 -0.24662,-1.40199 0.29922,-0.69048 -0.57023,-1.34694 -10e-4,-1.7724 0.45389,-0.0847 1.47095,0.33426 2.59078,0.66424 -0.11016,-0.81153 -0.1592,-1.61686 0.12473,-2.11742 0.34389,-0.64937 1.37455,-0.41247 2.04643,-0.39089 0.55325,-0.50044 -0.36756,-2.9038 -0.0625,-3.51854 0.21191,-0.41673 1.84677,-0.41206 2.67678,-0.49971 1.21275,-0.54467 1.75247,-1.87627 2.25286,-1.93671 z m -25.64012,4.72737 c 0.46158,-0.0751 1.47686,0.89426 2.10577,1.73475 0.84897,1.6664 1.87821,2.7913 3.11497,4.13157 3.98031,2.82205 9.09841,1.7695 9.15122,2.61505 -0.11686,0.38711 -3.90881,1.63838 -10.41422,-1.89456 -1.40802,-0.91374 -3.09963,-2.51663 -3.97905,-4.25147 -0.22898,-0.82683 -0.52995,-2.00008 -0.0632,-2.30624 0.0256,-0.0147 0.0538,-0.0241 0.0845,-0.0291 z m 9.76218,-0.90182 c 0.52445,-0.0437 0.77373,0.43568 1.38392,0.79498 1.09303,0.46462 1.05722,1.74396 0.78585,2.23921 -0.58097,0.46089 -0.72642,0.0677 -1.06775,-0.56857 -0.20072,-0.38984 -0.65784,-0.5679 -1.00271,-0.8186 -0.55923,-0.40707 -1.08387,-0.88003 -0.51382,-1.52536 0.15817,-0.0736 0.29348,-0.11162 0.41451,-0.1217 z m -3.65528,1.46956 c 0.9012,-0.0749 1.13289,0.97341 1.38801,1.70965 0.11483,0.25105 0.1883,0.65592 0.47784,0.76113 0.32118,0.0602 0.33059,-0.39622 0.64756,-0.29605 0.69874,0.1611 0.35999,1.10991 1.98523,0.99493 0.38828,0.88141 1.44113,0.83417 1.99051,1.51354 0.1282,0.69766 -1.17285,1.27648 -2.03666,0.46571 -0.61709,-0.10065 -1.2121,0.14828 -1.66974,0.0562 -0.15889,-0.41301 -0.22393,-0.89947 -0.72712,-1.15921 -0.61818,0.0118 -1.29136,0.0357 -1.7075,-1.06268 -0.31235,-0.65145 -1.26321,-2.52555 -0.53709,-2.95284 0.0662,-0.0158 0.12888,-0.0254 0.18899,-0.0301 z" /></g></g></svg>
